<?xml version="1.0" standalone="no"?>
<!DOCTYPE svg PUBLIC "-//W3C//DTD SVG 20010904//EN"
 "http://www.w3.org/TR/2001/REC-SVG-20010904/DTD/svg10.dtd">
<svg version="1.0" xmlns="http://www.w3.org/2000/svg"
 width="256.000000pt" height="256.000000pt" viewBox="0 0 256.000000 256.000000"
 preserveAspectRatio="xMidYMid meet">

<g transform="translate(0.000000,256.000000) scale(0.100000,-0.100000)"
fill="#000000" stroke="none">
<path d="M350 1275 l0 -815 140 0 140 0 0 60 0 60 -85 0 -85 0 2 698 3 697 83
3 82 3 0 54 0 55 -140 0 -140 0 0 -815z"/>
<path d="M1970 2035 l0 -54 83 -3 82 -3 0 -695 0 -695 -82 -3 -83 -3 0 -59 0
-60 140 0 140 0 0 815 0 815 -140 0 -140 0 0 -55z"/>
<path d="M1065 1833 c-215 -46 -355 -212 -355 -422 0 -234 152 -410 381 -441
151 -21 277 19 368 115 l52 55 66 -57 c82 -72 103 -99 103 -133 0 -33 -40 -76
-80 -85 -16 -3 -43 0 -62 8 -33 14 -88 69 -88 88 0 16 -17 10 -79 -27 l-60
-36 14 -29 c27 -52 79 -102 130 -125 75 -35 182 -34 256 4 79 40 111 90 116
184 7 105 -21 155 -152 269 l-100 87 0 58 c0 58 0 59 -27 56 -33 -4 -45 14
-19 27 43 23 89 13 135 -29 l43 -40 56 49 55 48 -46 46 c-62 61 -121 87 -197
87 -104 0 -189 -59 -216 -150 l-13 -41 -93 3 -93 3 0 -72 0 -72 121 -3 122 -3
-35 -45 c-44 -58 -103 -91 -177 -97 -209 -19 -374 175 -316 372 22 75 105 163
179 188 106 36 224 14 312 -59 l46 -37 49 49 c27 26 49 53 49 60 0 13 -90 84
-137 108 -71 36 -230 56 -308 39z m230 -25 c55 -14 123 -50 168 -90 l38 -33
-45 -44 -45 -44 -48 36 c-73 53 -127 72 -209 72 -90 -1 -164 -35 -228 -106
-113 -126 -102 -298 29 -417 125 -114 336 -108 418 13 l23 34 47 -47 47 -48
-32 -35 c-72 -78 -173 -119 -295 -119 -233 0 -402 139 -436 361 -36 231 116
445 339 478 65 10 167 5 229 -11z m349 -239 c40 -10 157 -90 155 -107 0 -4
-21 -24 -45 -46 l-43 -38 -42 36 c-53 45 -99 55 -137 30 -15 -10 -29 -18 -32
-17 -3 1 -5 -18 -5 -42 0 -24 3 -43 7 -42 4 1 31 -23 60 -53 29 -30 88 -86
131 -123 109 -97 140 -168 117 -272 -14 -62 -49 -109 -103 -137 -34 -18 -59
-22 -127 -22 -94 0 -130 13 -188 68 -31 29 -68 84 -60 91 2 1 25 16 52 33 l50
30 27 -37 c43 -59 113 -85 162 -60 65 34 83 80 52 139 -15 29 -107 111 -188
167 -25 18 -57 50 -71 72 -14 21 -30 42 -35 45 -5 4 -12 20 -16 36 -4 16 -11
33 -17 36 -11 7 -7 -25 7 -58 6 -16 -1 -18 -89 -18 l-96 0 0 55 0 55 90 0 c89
0 91 0 101 28 36 91 65 122 138 148 45 16 89 17 145 3z m-84 -216 c0 -35 0
-36 -20 -18 -11 10 -20 26 -20 37 0 11 7 18 20 18 16 0 20 -7 20 -37z"/>
</g>
</svg>
